<?xml version="1.0" encoding="UTF-8"?>
<svg id="Layer_2" data-name="Layer 2" xmlns="http://www.w3.org/2000/svg" xmlns:xlink="http://www.w3.org/1999/xlink" viewBox="0 0 1183.54 249.37">
  <defs>
    <style>
      .cls-1 {
        fill: url(#linear-gradient);
        stroke-width: 0px;
      }
    </style>
    <linearGradient id="linear-gradient" x1="373.32" y1="448.38" x2="798.44" y2="-206.24" gradientUnits="userSpaceOnUse">
      <stop offset="0" stop-color="#6dffff"/>
      <stop offset=".04" stop-color="#72f6ff"/>
      <stop offset=".11" stop-color="#80ddff"/>
      <stop offset=".2" stop-color="#96b5ff"/>
      <stop offset=".3" stop-color="#b67eff"/>
      <stop offset=".42" stop-color="#de39ff"/>
      <stop offset=".5" stop-color="#f0f"/>
      <stop offset=".64" stop-color="#ff4bbc"/>
      <stop offset=".77" stop-color="#ff8886"/>
      <stop offset=".87" stop-color="#ffb45f"/>
      <stop offset=".95" stop-color="#ffcf47"/>
      <stop offset="1" stop-color="#ffda3f"/>
    </linearGradient>
  </defs>
  <g id="Layer_1-2" data-name="Layer 1">
    <path class="cls-1" d="M145.22,10.46H40.93c-.28,0-.57,0-.84.01-21.88.55-35.97,23.51-27.04,43.49l27.95,66.24,1.19,2.68c1.78,3.87,4.16,4.16,10.11,4.46h87.39c.86,0,1.55.69,1.55,1.55v12.74c0,5.25-4.55,9.5-10.16,9.5l-66.65.8c-3.31.04-5.5,3.46-4.15,6.49l14.16,31.68,81.06.3h.73c28.56-.1,32.01-32.81,32.01-32.81v-67.85c0-3.05-2.47-5.51-5.51-5.51h-108.84c-.93,0-1.77-.54-2.16-1.38l-6.99-14.98c-2.24-3.87,1.22-8.32,6.47-8.32h111.24c3.19,0,5.77-2.58,5.77-5.77-.49-40.51-9.66-43.31-42.98-43.31h0ZM74.02,190.39l-69.99.06c-3.3,0-5.19,3.74-3.26,6.41,9.94,13.73,37.63,45.24,93.42,52.47.17.02.33.03.5.03,2.61,0,4.48-2.72,3.36-5.2l-24.04-53.77h0ZM340.74,115.17v6.56c0,4.64-3.76,8.39-8.39,8.39h-80.1c2.49,17.2,13.46,24.68,36.9,24.93,10.2,0,20.11-1.49,29.03-4.46,4.15-1.38,8.59,1.06,9.6,5.31l2.72,11.42c.92,3.86-1.01,7.87-4.64,9.48-11.61,5.16-24.25,7.67-36.71,7.67-44.87,0-73.29-24.43-73.29-64.57,0-34.15,23.43-64.57,63.82-65.07,35.65,0,60.33,20.94,61.08,60.33ZM255.56,106.7h46.37c1.44,0,2.56-1.28,2.33-2.7-2.28-14.2-11.6-19.74-23.34-19.74-14.85,0-23.47,7.14-27.1,20.14-.32,1.15.55,2.29,1.74,2.29ZM373.43,57.34h21.95c3.82,0,6.92,3.1,6.92,6.92v7.29l1.5.5c8.48-9.97,22.93-17.2,41.63-17.2,24.68,0,45.12,17.7,45.12,52.35v68.41c0,3.52-2.85,6.37-6.37,6.37h-23.01c-3.6,0-6.51-2.92-6.51-6.51v-66.28c0-17.45-10.97-24.93-24.18-24.93-.11,0-.22,0-.34,0-15.44.1-27.83,12.83-27.83,28.28v63.48c0,3.29-2.67,5.96-5.96,5.96h-23.23c-3.71,0-6.71-3-6.71-6.71v-110.91c0-3.88,3.14-7.02,7.02-7.02ZM613.45,65.06V8.39c0-4.63,3.75-8.39,8.39-8.39h20.33c3.97,0,7.18,3.21,7.18,7.18v168.1c0,3.7-3,6.7-6.7,6.7h-22.16c-3.89,0-7.05-3.15-7.05-7.05v-1.1c0-.94-.6-1.78-1.5-2.08h0c-7.48,7.48-19.69,12.71-34.65,12.71-33.65,0-60.08-28.67-60.08-64.81s27.42-64.82,62.57-64.82c14.71,0,24.93,3.74,33.65,10.22ZM613.45,125.75v-12.27c0-15.98-12.84-29.15-28.82-29.22-.11,0-.23,0-.34,0-17.2,0-31.16,14.71-31.16,35.4s13.96,35.4,31.16,35.4c.11,0,.23,0,.34,0,16-.1,28.82-13.31,28.82-29.31ZM735.84,155.06c6.16,0,11.98-.56,17.4-2.26,4.35-1.37,8.95,1.25,10.05,5.68l3.11,12.55c.97,3.9-1.12,7.93-4.87,9.34-8.37,3.16-16.55,4.1-25.68,4.1-38.39,0-68.31-28.67-68.31-64.81s29.91-64.82,68.31-64.82c9.04,0,17.14.62,25.42,3.57,3.88,1.38,6.1,5.45,5.11,9.44l-3.24,12.95c-1.08,4.3-5.48,6.95-9.75,5.76-4.94-1.38-10.68-2.3-17.54-2.3-19.2,0-34.4,14.96-34.4,35.4s15.21,35.4,34.4,35.4ZM796.12,0h19.9c4.59,0,8.32,3.72,8.32,8.32v62.41c0,.49.31.93.78,1.08h0c.43.14.91.01,1.21-.33,8.54-9.68,22.8-16.63,41.14-16.63,24.68,0,45.12,18.2,45.12,54.35v61.44c0,6.27-5.08,11.35-11.35,11.35h-14.66c-5.46,0-9.89-4.43-9.89-9.89v-60.91c0-18.95-10.97-26.92-24.18-26.92-.48,0-.95,0-1.43.03-15.04.62-26.74,13.39-26.74,28.44v60.77c0,4.68-3.8,8.48-8.48,8.48h-19.16c-4.56,0-8.27-3.7-8.27-8.27V7.68c0-4.24,3.44-7.68,7.68-7.68ZM1034.92,65.4h0c.35-.21.56-.59.56-.99h0c0-3.91,3.17-7.08,7.08-7.08h0c15.92,0,28.82,12.9,28.82,28.82v71.06c0,13.68-11.09,24.76-24.76,24.76h0c-6.15,0-11.13-4.99-11.13-11.13h0c0-.5-.32-.94-.79-1.09h0c-.43-.14-.9-.02-1.21.32-7.78,8.43-20.53,14.41-36.15,14.41-33.65,0-60.08-28.67-60.08-64.81s27.42-64.82,62.57-64.82c15.3,0,25.87,4.26,33.78,10.47.38.3.89.33,1.3.09ZM1035.48,123.81v-8.32c0-17.07-13.71-31.14-30.78-31.23-.13,0-.25,0-.38,0-17.2,0-31.16,14.71-31.16,35.4s13.96,35.4,31.16,35.4c.13,0,.25,0,.38,0,17.07-.12,30.78-14.17,30.78-31.25ZM1099.12,57.34h6.09c3.35,0,6.06-2.71,6.06-6.06v-27.77c0-3.35,2.71-6.06,6.06-6.06h23.78c3.35,0,6.06,2.71,6.06,6.06v27.77c0,3.35,2.71,6.06,6.06,6.06h18.8c3.35,0,6.06,2.71,6.06,6.06v15.31c0,3.35-2.71,6.06-6.06,6.06h-18.8c-3.35,0-6.06,2.71-6.06,6.06v44.05c0,11.97,6.73,16.95,16.45,16.95,3.34,0,6.69-.34,9.74-.92,3.33-.63,6.53,1.65,7.11,4.99l2.99,17.22c.51,2.95-1.2,5.86-4.04,6.78-6.49,2.1-14.52,3.34-21.78,3.34-26.67,0-46.37-16.7-46.37-46.37v-46.05c0-3.35-2.71-6.06-6.06-6.06h-6.09c-3.35,0-6.06-2.71-6.06-6.06v-15.31c0-3.35,2.71-6.06,6.06-6.06Z"/>
  </g>
</svg>