<?xml version="1.0" encoding="UTF-8"?>
<svg id="Layer_2" data-name="Layer 2" xmlns="http://www.w3.org/2000/svg" xmlns:xlink="http://www.w3.org/1999/xlink" viewBox="0 0 740.6 911.01">
  <defs>
    <style>
      .cls-1 {
        fill: url(#linear-gradient);
        stroke-width: 0px;
      }
    </style>
    <linearGradient id="linear-gradient" x1="151.21" y1="60.48" x2="581.74" y2="723.43" gradientUnits="userSpaceOnUse">
      <stop offset="0" stop-color="#6dffff"/>
      <stop offset=".04" stop-color="#72f6ff"/>
      <stop offset=".11" stop-color="#80ddff"/>
      <stop offset=".2" stop-color="#96b5ff"/>
      <stop offset=".3" stop-color="#b67eff"/>
      <stop offset=".42" stop-color="#de39ff"/>
      <stop offset=".5" stop-color="#f0f"/>
      <stop offset=".64" stop-color="#ff4bbc"/>
      <stop offset=".77" stop-color="#ff8886"/>
      <stop offset=".87" stop-color="#ffb45f"/>
      <stop offset=".95" stop-color="#ffcf47"/>
      <stop offset="1" stop-color="#ffda3f"/>
    </linearGradient>
  </defs>
  <g id="Layer_1-2" data-name="Layer 1">
    <path class="cls-1" d="M542.15,54c-.37,0-.72,0-1.1,0H191.72c-.95,0-1.9.01-2.84.04-73.56,1.86-120.92,79.03-90.9,146.2l93.96,222.7,4,9c6,13,14,14,34,15h293.79c2.88,0,5.21,2.33,5.21,5.21v42.59c0,17.76-15.4,32.15-34.39,32.15l-225.51,2.69c-11.21.13-18.62,11.71-14.05,21.95l47.91,107.18,273.75-.25c.82,0,1.65,0,2.46,0,96.04,0,107.83-28.22,107.49-109.97v-228.02c0-10.24-8.3-18.54-18.54-18.54h-366c-3.12,0-5.96-1.81-7.28-4.64l-23.51-50.38c-7.53-13.01,4.11-27.99,21.75-27.99h374.19c10.71,0,19.39-8.68,19.39-19.39-1.65-136.16-32.47-145.55-144.44-145.55h0ZM302.9,658.71l-235.32.21c-11.09,0-17.46,12.57-10.96,21.56,33.41,46.18,126.52,152.12,314.12,176.42.57.07,1.12.11,1.67.11,8.79,0,15.05-9.15,11.31-17.5l-80.82-180.79h0Z"/>
  </g>
</svg>